<svg width="607" height="607" viewBox="0 0 607 607" fill="none" xmlns="http://www.w3.org/2000/svg">
<rect width="161" height="607" fill="#E5E5E5"/>
<rect x="161" width="446" height="607" fill="black"/>
<g filter="url(#filter0_dd)">
<path d="M52.0625 341H35.6562V261.375H52.0625V341ZM129.828 314.477C129.208 323.044 126.036 329.789 120.312 334.711C114.625 339.633 107.115 342.094 97.7812 342.094C87.5729 342.094 79.5339 338.667 73.6641 331.812C67.8307 324.922 64.9141 315.479 64.9141 303.484V298.617C64.9141 290.961 66.263 284.216 68.9609 278.383C71.6589 272.549 75.5052 268.083 80.5 264.984C85.5312 261.849 91.3646 260.281 98 260.281C107.188 260.281 114.589 262.742 120.203 267.664C125.818 272.586 129.062 279.495 129.938 288.391H113.531C113.13 283.25 111.69 279.531 109.211 277.234C106.768 274.901 103.031 273.734 98 273.734C92.5312 273.734 88.4297 275.703 85.6953 279.641C82.9974 283.542 81.612 289.612 81.5391 297.852V303.867C81.5391 312.471 82.8333 318.76 85.4219 322.734C88.0469 326.708 92.1667 328.695 97.7812 328.695C102.849 328.695 106.622 327.547 109.102 325.25C111.617 322.917 113.057 319.326 113.422 314.477H129.828Z" fill="white"/>
</g>
<g filter="url(#filter1_dd)">
<path d="M238.328 314.477C237.708 323.044 234.536 329.789 228.812 334.711C223.125 339.633 215.615 342.094 206.281 342.094C196.073 342.094 188.034 338.667 182.164 331.812C176.331 324.922 173.414 315.479 173.414 303.484V298.617C173.414 290.961 174.763 284.216 177.461 278.383C180.159 272.549 184.005 268.083 189 264.984C194.031 261.849 199.865 260.281 206.5 260.281C215.688 260.281 223.089 262.742 228.703 267.664C234.318 272.586 237.562 279.495 238.438 288.391H222.031C221.63 283.25 220.19 279.531 217.711 277.234C215.268 274.901 211.531 273.734 206.5 273.734C201.031 273.734 196.93 275.703 194.195 279.641C191.497 283.542 190.112 289.612 190.039 297.852V303.867C190.039 312.471 191.333 318.76 193.922 322.734C196.547 326.708 200.667 328.695 206.281 328.695C211.349 328.695 215.122 327.547 217.602 325.25C220.117 322.917 221.557 319.326 221.922 314.477H238.328ZM314.508 302.992C314.508 310.831 313.122 317.703 310.352 323.609C307.581 329.516 303.607 334.073 298.43 337.281C293.289 340.49 287.383 342.094 280.711 342.094C274.112 342.094 268.224 340.508 263.047 337.336C257.87 334.164 253.859 329.643 251.016 323.773C248.172 317.867 246.732 311.086 246.695 303.43V299.492C246.695 291.654 248.099 284.763 250.906 278.82C253.75 272.841 257.742 268.266 262.883 265.094C268.06 261.885 273.966 260.281 280.602 260.281C287.237 260.281 293.125 261.885 298.266 265.094C303.443 268.266 307.435 272.841 310.242 278.82C313.086 284.763 314.508 291.635 314.508 299.438V302.992ZM297.883 299.383C297.883 291.034 296.388 284.69 293.398 280.352C290.409 276.013 286.143 273.844 280.602 273.844C275.096 273.844 270.849 275.995 267.859 280.297C264.87 284.562 263.357 290.833 263.32 299.109V302.992C263.32 311.122 264.815 317.43 267.805 321.914C270.794 326.398 275.096 328.641 280.711 328.641C286.216 328.641 290.445 326.49 293.398 322.188C296.352 317.849 297.846 311.542 297.883 303.266V299.383ZM326.43 341V261.375H350.93C357.93 261.375 364.182 262.961 369.688 266.133C375.229 269.268 379.549 273.753 382.648 279.586C385.747 285.383 387.297 291.982 387.297 299.383V303.047C387.297 310.448 385.766 317.029 382.703 322.789C379.677 328.549 375.393 333.016 369.852 336.188C364.31 339.359 358.057 340.964 351.094 341H326.43ZM342.836 274.664V327.82H350.766C357.182 327.82 362.086 325.724 365.477 321.531C368.867 317.339 370.599 311.341 370.672 303.539V299.328C370.672 291.234 368.995 285.109 365.641 280.953C362.286 276.76 357.383 274.664 350.93 274.664H342.836ZM416.719 341H400.312V261.375H416.719V341ZM496.727 341H480.32L448.383 288.609V341H431.977V261.375H448.383L480.375 313.875V261.375H496.727V341ZM574.055 330.938C571.102 334.474 566.927 337.227 561.531 339.195C556.135 341.128 550.156 342.094 543.594 342.094C536.703 342.094 530.651 340.599 525.438 337.609C520.26 334.583 516.25 330.208 513.406 324.484C510.599 318.76 509.159 312.034 509.086 304.305V298.891C509.086 290.943 510.417 284.07 513.078 278.273C515.776 272.44 519.641 267.992 524.672 264.93C529.74 261.831 535.664 260.281 542.445 260.281C551.888 260.281 559.271 262.542 564.594 267.062C569.917 271.547 573.07 278.091 574.055 286.695H558.086C557.357 282.138 555.734 278.802 553.219 276.688C550.74 274.573 547.312 273.516 542.938 273.516C537.359 273.516 533.112 275.612 530.195 279.805C527.279 283.997 525.802 290.232 525.766 298.508V303.594C525.766 311.943 527.352 318.25 530.523 322.516C533.695 326.781 538.344 328.914 544.469 328.914C550.63 328.914 555.023 327.602 557.648 324.977V311.25H542.719V299.164H574.055V330.938Z" fill="white"/>
</g>
<defs>
<filter id="filter0_dd" x="35.6562" y="260.281" width="109.281" height="81.8125" filterUnits="userSpaceOnUse" color-interpolation-filters="sRGB">
<feFlood flood-opacity="0" result="BackgroundImageFix"/>
<feColorMatrix in="SourceAlpha" type="matrix" values="0 0 0 0 0 0 0 0 0 0 0 0 0 0 0 0 0 0 127 0"/>
<feOffset dx="10"/>
<feColorMatrix type="matrix" values="0 0 0 0 0.379167 0 0 0 0 0.379167 0 0 0 0 0.379167 0 0 0 1 0"/>
<feBlend mode="normal" in2="BackgroundImageFix" result="effect1_dropShadow"/>
<feColorMatrix in="SourceAlpha" type="matrix" values="0 0 0 0 0 0 0 0 0 0 0 0 0 0 0 0 0 0 127 0"/>
<feOffset dx="15"/>
<feColorMatrix type="matrix" values="0 0 0 0 0.741667 0 0 0 0 0.738576 0 0 0 0 0.738576 0 0 0 0.25 0"/>
<feBlend mode="normal" in2="effect1_dropShadow" result="effect2_dropShadow"/>
<feBlend mode="normal" in="SourceGraphic" in2="effect2_dropShadow" result="shape"/>
</filter>
<filter id="filter1_dd" x="173.414" y="260.281" width="415.641" height="81.8125" filterUnits="userSpaceOnUse" color-interpolation-filters="sRGB">
<feFlood flood-opacity="0" result="BackgroundImageFix"/>
<feColorMatrix in="SourceAlpha" type="matrix" values="0 0 0 0 0 0 0 0 0 0 0 0 0 0 0 0 0 0 127 0"/>
<feOffset dx="10"/>
<feColorMatrix type="matrix" values="0 0 0 0 0.379167 0 0 0 0 0.379167 0 0 0 0 0.379167 0 0 0 1 0"/>
<feBlend mode="normal" in2="BackgroundImageFix" result="effect1_dropShadow"/>
<feColorMatrix in="SourceAlpha" type="matrix" values="0 0 0 0 0 0 0 0 0 0 0 0 0 0 0 0 0 0 127 0"/>
<feOffset dx="15"/>
<feColorMatrix type="matrix" values="0 0 0 0 0.741667 0 0 0 0 0.738576 0 0 0 0 0.738576 0 0 0 0.25 0"/>
<feBlend mode="normal" in2="effect1_dropShadow" result="effect2_dropShadow"/>
<feBlend mode="normal" in="SourceGraphic" in2="effect2_dropShadow" result="shape"/>
</filter>
</defs>
</svg>
