<svg width="607" height="162" viewBox="0 0 607 162" fill="none" xmlns="http://www.w3.org/2000/svg">
<rect width="161" height="162" fill="#E5E5E5"/>
<rect x="161" width="446" height="162" fill="black"/>
<g filter="url(#filter0_dd)">
<path d="M52.0625 123H35.6562V43.375H52.0625V123ZM129.828 96.4766C129.208 105.044 126.036 111.789 120.312 116.711C114.625 121.633 107.115 124.094 97.7812 124.094C87.5729 124.094 79.5339 120.667 73.6641 113.812C67.8307 106.922 64.9141 97.4792 64.9141 85.4844V80.6172C64.9141 72.9609 66.263 66.2161 68.9609 60.3828C71.6589 54.5495 75.5052 50.0833 80.5 46.9844C85.5312 43.849 91.3646 42.2812 98 42.2812C107.188 42.2812 114.589 44.7422 120.203 49.6641C125.818 54.5859 129.062 61.4948 129.938 70.3906H113.531C113.13 65.25 111.69 61.5312 109.211 59.2344C106.768 56.901 103.031 55.7344 98 55.7344C92.5312 55.7344 88.4297 57.7031 85.6953 61.6406C82.9974 65.5417 81.612 71.612 81.5391 79.8516V85.8672C81.5391 94.4714 82.8333 100.76 85.4219 104.734C88.0469 108.708 92.1667 110.695 97.7812 110.695C102.849 110.695 106.622 109.547 109.102 107.25C111.617 104.917 113.057 101.326 113.422 96.4766H129.828Z" fill="white"/>
</g>
<g filter="url(#filter1_dd)">
<path d="M238.328 96.4766C237.708 105.044 234.536 111.789 228.812 116.711C223.125 121.633 215.615 124.094 206.281 124.094C196.073 124.094 188.034 120.667 182.164 113.812C176.331 106.922 173.414 97.4792 173.414 85.4844V80.6172C173.414 72.9609 174.763 66.2161 177.461 60.3828C180.159 54.5495 184.005 50.0833 189 46.9844C194.031 43.849 199.865 42.2812 206.5 42.2812C215.688 42.2812 223.089 44.7422 228.703 49.6641C234.318 54.5859 237.562 61.4948 238.438 70.3906H222.031C221.63 65.25 220.19 61.5312 217.711 59.2344C215.268 56.901 211.531 55.7344 206.5 55.7344C201.031 55.7344 196.93 57.7031 194.195 61.6406C191.497 65.5417 190.112 71.612 190.039 79.8516V85.8672C190.039 94.4714 191.333 100.76 193.922 104.734C196.547 108.708 200.667 110.695 206.281 110.695C211.349 110.695 215.122 109.547 217.602 107.25C220.117 104.917 221.557 101.326 221.922 96.4766H238.328ZM314.508 84.9922C314.508 92.8307 313.122 99.7031 310.352 105.609C307.581 111.516 303.607 116.073 298.43 119.281C293.289 122.49 287.383 124.094 280.711 124.094C274.112 124.094 268.224 122.508 263.047 119.336C257.87 116.164 253.859 111.643 251.016 105.773C248.172 99.8672 246.732 93.0859 246.695 85.4297V81.4922C246.695 73.6536 248.099 66.763 250.906 60.8203C253.75 54.8411 257.742 50.2656 262.883 47.0938C268.06 43.8854 273.966 42.2812 280.602 42.2812C287.237 42.2812 293.125 43.8854 298.266 47.0938C303.443 50.2656 307.435 54.8411 310.242 60.8203C313.086 66.763 314.508 73.6354 314.508 81.4375V84.9922ZM297.883 81.3828C297.883 73.0339 296.388 66.6901 293.398 62.3516C290.409 58.013 286.143 55.8438 280.602 55.8438C275.096 55.8438 270.849 57.9948 267.859 62.2969C264.87 66.5625 263.357 72.8333 263.32 81.1094V84.9922C263.32 93.1224 264.815 99.4297 267.805 103.914C270.794 108.398 275.096 110.641 280.711 110.641C286.216 110.641 290.445 108.49 293.398 104.188C296.352 99.849 297.846 93.5417 297.883 85.2656V81.3828ZM326.43 123V43.375H350.93C357.93 43.375 364.182 44.9609 369.688 48.1328C375.229 51.2682 379.549 55.7526 382.648 61.5859C385.747 67.3828 387.297 73.9818 387.297 81.3828V85.0469C387.297 92.4479 385.766 99.0286 382.703 104.789C379.677 110.549 375.393 115.016 369.852 118.188C364.31 121.359 358.057 122.964 351.094 123H326.43ZM342.836 56.6641V109.82H350.766C357.182 109.82 362.086 107.724 365.477 103.531C368.867 99.3385 370.599 93.3411 370.672 85.5391V81.3281C370.672 73.2344 368.995 67.1094 365.641 62.9531C362.286 58.7604 357.383 56.6641 350.93 56.6641H342.836ZM416.719 123H400.312V43.375H416.719V123ZM496.727 123H480.32L448.383 70.6094V123H431.977V43.375H448.383L480.375 95.875V43.375H496.727V123ZM574.055 112.938C571.102 116.474 566.927 119.227 561.531 121.195C556.135 123.128 550.156 124.094 543.594 124.094C536.703 124.094 530.651 122.599 525.438 119.609C520.26 116.583 516.25 112.208 513.406 106.484C510.599 100.76 509.159 94.0339 509.086 86.3047V80.8906C509.086 72.9427 510.417 66.0703 513.078 60.2734C515.776 54.4401 519.641 49.9922 524.672 46.9297C529.74 43.8307 535.664 42.2812 542.445 42.2812C551.888 42.2812 559.271 44.5417 564.594 49.0625C569.917 53.5469 573.07 60.0911 574.055 68.6953H558.086C557.357 64.138 555.734 60.8021 553.219 58.6875C550.74 56.5729 547.312 55.5156 542.938 55.5156C537.359 55.5156 533.112 57.612 530.195 61.8047C527.279 65.9974 525.802 72.2318 525.766 80.5078V85.5938C525.766 93.9427 527.352 100.25 530.523 104.516C533.695 108.781 538.344 110.914 544.469 110.914C550.63 110.914 555.023 109.602 557.648 106.977V93.25H542.719V81.1641H574.055V112.938Z" fill="white"/>
</g>
<defs>
<filter id="filter0_dd" x="35.6562" y="42.2812" width="109.281" height="81.8125" filterUnits="userSpaceOnUse" color-interpolation-filters="sRGB">
<feFlood flood-opacity="0" result="BackgroundImageFix"/>
<feColorMatrix in="SourceAlpha" type="matrix" values="0 0 0 0 0 0 0 0 0 0 0 0 0 0 0 0 0 0 127 0"/>
<feOffset dx="10"/>
<feColorMatrix type="matrix" values="0 0 0 0 0.379167 0 0 0 0 0.379167 0 0 0 0 0.379167 0 0 0 1 0"/>
<feBlend mode="normal" in2="BackgroundImageFix" result="effect1_dropShadow"/>
<feColorMatrix in="SourceAlpha" type="matrix" values="0 0 0 0 0 0 0 0 0 0 0 0 0 0 0 0 0 0 127 0"/>
<feOffset dx="15"/>
<feColorMatrix type="matrix" values="0 0 0 0 0.741667 0 0 0 0 0.738576 0 0 0 0 0.738576 0 0 0 0.25 0"/>
<feBlend mode="normal" in2="effect1_dropShadow" result="effect2_dropShadow"/>
<feBlend mode="normal" in="SourceGraphic" in2="effect2_dropShadow" result="shape"/>
</filter>
<filter id="filter1_dd" x="173.414" y="42.2812" width="415.641" height="81.8125" filterUnits="userSpaceOnUse" color-interpolation-filters="sRGB">
<feFlood flood-opacity="0" result="BackgroundImageFix"/>
<feColorMatrix in="SourceAlpha" type="matrix" values="0 0 0 0 0 0 0 0 0 0 0 0 0 0 0 0 0 0 127 0"/>
<feOffset dx="10"/>
<feColorMatrix type="matrix" values="0 0 0 0 0.379167 0 0 0 0 0.379167 0 0 0 0 0.379167 0 0 0 1 0"/>
<feBlend mode="normal" in2="BackgroundImageFix" result="effect1_dropShadow"/>
<feColorMatrix in="SourceAlpha" type="matrix" values="0 0 0 0 0 0 0 0 0 0 0 0 0 0 0 0 0 0 127 0"/>
<feOffset dx="15"/>
<feColorMatrix type="matrix" values="0 0 0 0 0.741667 0 0 0 0 0.738576 0 0 0 0 0.738576 0 0 0 0.25 0"/>
<feBlend mode="normal" in2="effect1_dropShadow" result="effect2_dropShadow"/>
<feBlend mode="normal" in="SourceGraphic" in2="effect2_dropShadow" result="shape"/>
</filter>
</defs>
</svg>
